<svg width="296" height="52" viewBox="0 0 296 52" fill="none" xmlns="http://www.w3.org/2000/svg">
<path d="M130.683 15.6796C128.808 15.6796 127.259 15.0564 126.036 13.81C124.813 12.5637 124.202 11.0265 124.202 9.19857C124.202 7.35873 124.813 5.82157 126.036 4.58709C127.259 3.34075 128.808 2.71757 130.683 2.71757C131.811 2.71757 132.849 2.98465 133.799 3.5188C134.76 4.04108 135.508 4.75327 136.042 5.65539L133.924 6.88393C133.615 6.32604 133.176 5.89279 132.606 5.58417C132.036 5.26368 131.395 5.10344 130.683 5.10344C129.472 5.10344 128.493 5.48327 127.745 6.24295C127.009 7.00263 126.641 7.98784 126.641 9.19857C126.641 10.3974 127.009 11.3767 127.745 12.1364C128.493 12.8961 129.472 13.2759 130.683 13.2759C131.395 13.2759 132.036 13.1216 132.606 12.813C133.188 12.4925 133.627 12.0592 133.924 11.5132L136.042 12.7418C135.508 13.6439 134.766 14.362 133.817 14.8961C132.867 15.4184 131.823 15.6796 130.683 15.6796ZM148.095 13.81C146.837 15.0564 145.306 15.6796 143.501 15.6796C141.697 15.6796 140.166 15.0564 138.908 13.81C137.661 12.5518 137.038 11.0147 137.038 9.19857C137.038 7.38247 137.661 5.85124 138.908 4.6049C140.166 3.34668 141.697 2.71757 143.501 2.71757C145.306 2.71757 146.837 3.34668 148.095 4.6049C149.353 5.85124 149.982 7.38247 149.982 9.19857C149.982 11.0147 149.353 12.5518 148.095 13.81ZM140.635 12.1364C141.406 12.8961 142.362 13.2759 143.501 13.2759C144.641 13.2759 145.597 12.8961 146.368 12.1364C147.14 11.3648 147.525 10.3856 147.525 9.19857C147.525 8.01158 147.14 7.0323 146.368 6.26076C145.597 5.48921 144.641 5.10344 143.501 5.10344C142.362 5.10344 141.406 5.48921 140.635 6.26076C139.863 7.0323 139.478 8.01158 139.478 9.19857C139.478 10.3856 139.863 11.3648 140.635 12.1364ZM164.084 2.96684V15.4303H161.645V7.34686L158.137 13.1335H157.852L154.345 7.36466V15.4303H151.887V2.96684H154.416L157.995 8.86028L161.556 2.96684H164.084ZM171.231 2.96684C172.43 2.96684 173.439 3.37042 174.258 4.17758C175.077 4.98474 175.487 5.97588 175.487 7.151C175.487 8.32613 175.077 9.31727 174.258 10.1244C173.439 10.9316 172.43 11.3352 171.231 11.3352H169.041V15.4303H166.584V2.96684H171.231ZM171.231 9.03833C171.754 9.03833 172.187 8.86028 172.531 8.50418C172.875 8.13621 173.047 7.68515 173.047 7.151C173.047 6.60499 172.875 6.15393 172.531 5.79783C172.187 5.44173 171.754 5.26368 171.231 5.26368H169.041V9.03833H171.231ZM181.911 15.6796C180.523 15.6796 179.383 15.2879 178.493 14.5044C177.603 13.721 177.158 12.6705 177.158 11.353V2.96684H179.597V11.1571C179.597 11.81 179.781 12.3263 180.149 12.7061C180.529 13.086 181.116 13.2759 181.911 13.2759C182.707 13.2759 183.288 13.086 183.656 12.7061C184.036 12.3263 184.226 11.81 184.226 11.1571V2.96684H186.683V11.353C186.683 12.6705 186.238 13.721 185.348 14.5044C184.458 15.2879 183.312 15.6796 181.911 15.6796ZM197.318 2.96684V5.3171H193.953V15.4303H191.496V5.3171H188.149V2.96684H197.318ZM201.325 13.08H206.578V15.4303H198.868V2.96684H206.489V5.3171H201.325V7.97003H206.044V10.2847H201.325V13.08ZM215.325 15.4303L212.814 11.1037H210.945V15.4303H208.488V2.96684H213.473C214.624 2.96684 215.604 3.37042 216.411 4.17758C217.218 4.98474 217.622 5.95807 217.622 7.09759C217.622 7.86914 217.402 8.58727 216.963 9.25199C216.524 9.90483 215.942 10.3974 215.218 10.7298L217.978 15.4303H215.325ZM210.945 5.26368V8.9493H213.473C213.936 8.9493 214.334 8.77125 214.666 8.41515C214.998 8.04719 215.165 7.608 215.165 7.09759C215.165 6.58718 214.998 6.15393 214.666 5.79783C214.334 5.44173 213.936 5.26368 213.473 5.26368H210.945ZM227.312 15.4303L223.128 2.96684H225.799L228.843 12.5459L231.87 2.96684H234.559L230.357 15.4303H227.312ZM235.938 2.96684H238.395V15.4303H235.938V2.96684ZM244.944 15.6796C243.71 15.6796 242.671 15.4066 241.828 14.8605C240.986 14.3027 240.392 13.5489 240.048 12.5993L242.149 11.3708C242.636 12.6409 243.591 13.2759 245.015 13.2759C245.704 13.2759 246.208 13.1513 246.529 12.902C246.849 12.6527 247.01 12.3382 247.01 11.9583C247.01 11.5191 246.814 11.1809 246.422 10.9435C246.03 10.6942 245.33 10.4271 244.321 10.1422C243.763 9.97605 243.288 9.80987 242.897 9.64369C242.517 9.47751 242.131 9.25792 241.739 8.98491C241.36 8.70003 241.069 8.34393 240.867 7.91662C240.665 7.4893 240.564 6.99076 240.564 6.421C240.564 5.29336 240.962 4.39717 241.757 3.73246C242.564 3.05587 243.532 2.71757 244.659 2.71757C245.668 2.71757 246.553 2.96684 247.312 3.46538C248.084 3.95205 248.683 4.63457 249.111 5.51295L247.045 6.70588C246.547 5.63758 245.751 5.10344 244.659 5.10344C244.149 5.10344 243.745 5.22214 243.449 5.45954C243.164 5.68506 243.021 5.98181 243.021 6.34978C243.021 6.74149 243.182 7.06198 243.502 7.31125C243.834 7.54865 244.464 7.80979 245.389 8.09466C245.769 8.21336 246.054 8.30832 246.244 8.37954C246.446 8.43889 246.713 8.53979 247.045 8.68223C247.389 8.8128 247.651 8.93743 247.829 9.05613C248.019 9.17483 248.232 9.33508 248.47 9.53686C248.707 9.73865 248.885 9.94638 249.004 10.16C249.134 10.3737 249.241 10.6348 249.324 10.9435C249.419 11.2402 249.467 11.5666 249.467 11.9227C249.467 13.0741 249.045 13.9881 248.203 14.6647C247.372 15.3413 246.286 15.6796 244.944 15.6796ZM251.16 2.96684H253.617V15.4303H251.16V2.96684ZM266.59 13.81C265.332 15.0564 263.8 15.6796 261.996 15.6796C260.192 15.6796 258.661 15.0564 257.402 13.81C256.156 12.5518 255.533 11.0147 255.533 9.19857C255.533 7.38247 256.156 5.85124 257.402 4.6049C258.661 3.34668 260.192 2.71757 261.996 2.71757C263.8 2.71757 265.332 3.34668 266.59 4.6049C267.848 5.85124 268.477 7.38247 268.477 9.19857C268.477 11.0147 267.848 12.5518 266.59 13.81ZM259.13 12.1364C259.901 12.8961 260.857 13.2759 261.996 13.2759C263.136 13.2759 264.091 12.8961 264.863 12.1364C265.634 11.3648 266.02 10.3856 266.02 9.19857C266.02 8.01158 265.634 7.0323 264.863 6.26076C264.091 5.48921 263.136 5.10344 261.996 5.10344C260.857 5.10344 259.901 5.48921 259.13 6.26076C258.358 7.0323 257.972 8.01158 257.972 9.19857C257.972 10.3856 258.358 11.3648 259.13 12.1364ZM277.593 2.96684H280.05V15.4303H278.181L272.839 7.80979V15.4303H270.382V2.96684H272.252L277.593 10.5696V2.96684ZM127.852 33.4303L123.668 20.9668H126.339L129.383 30.5459L132.41 20.9668H135.099L130.897 33.4303H127.852ZM136.478 20.9668H138.935V33.4303H136.478V20.9668ZM143.877 31.08H149.13V33.4303H141.42V20.9668H149.041V23.3171H143.877V25.97H148.596V28.2847H143.877V31.08ZM159.283 20.9668V23.3171H155.918V33.4303H153.461V23.3171H150.114V20.9668H159.283ZM168.044 20.9668H170.501V33.4303H168.632L163.29 25.8098V33.4303H160.833V20.9668H162.703L168.044 28.5696V20.9668ZM181.003 33.4303L180.256 31.1869H175.288L174.54 33.4303H171.887L176.25 20.9668H179.294L183.674 33.4303H181.003ZM176.071 28.89H179.49L177.781 23.7978L176.071 28.89ZM197.259 20.9668V33.4303H194.819V25.3469L191.312 31.1335H191.027L187.519 25.3647V33.4303H185.062V20.9668H187.591L191.169 26.8603L194.73 20.9668H197.259Z" fill="#EC1C2A"/>
<path d="M127.726 48.5818L125.483 43.0265H125.45C125.472 43.3666 125.483 43.715 125.483 44.0717V48.5818H125.08V42.5656H125.73L127.862 47.8576H127.886L130.018 42.5656H130.652V48.5818H130.228V44.0223C130.228 43.7041 130.244 43.3749 130.277 43.0347H130.244L127.993 48.5818H127.726ZM140.646 46.4585H138.202L137.362 48.5818H136.897L139.317 42.5409H139.584L141.955 48.5818H141.482L140.646 46.4585ZM138.354 46.0799H140.506L139.687 43.9112C139.619 43.7411 139.536 43.5052 139.44 43.2034C139.366 43.4668 139.285 43.7054 139.198 43.9194L138.354 46.0799ZM150.772 42.8577C150.018 42.8577 149.424 43.0992 148.99 43.582C148.557 44.0648 148.34 44.726 148.34 45.5655C148.34 46.4242 148.545 47.0908 148.953 47.5654C149.362 48.04 149.947 48.2773 150.706 48.2773C151.211 48.2773 151.675 48.2129 152.097 48.0839V48.4543C151.7 48.5942 151.203 48.6642 150.608 48.6642C149.763 48.6642 149.097 48.3912 148.612 47.8452C148.126 47.2993 147.883 46.5366 147.883 45.5572C147.883 44.9455 147.999 44.4064 148.229 43.94C148.462 43.4736 148.796 43.1142 149.229 42.8619C149.665 42.6067 150.171 42.4791 150.748 42.4791C151.335 42.4791 151.86 42.5889 152.324 42.8084L152.155 43.1869C151.716 42.9675 151.255 42.8577 150.772 42.8577ZM163.191 48.5818H162.767V45.6231H159.252V48.5818H158.833V42.5656H159.252V45.2363H162.767V42.5656H163.191V48.5818ZM170.292 48.5818V42.5656H170.712V48.5818H170.292ZM182.184 48.5818H181.76L178.196 43.2404H178.163C178.196 43.8769 178.212 44.357 178.212 44.6807V48.5818H177.809V42.5656H178.229L181.788 47.8987H181.813C181.788 47.4049 181.776 46.9358 181.776 46.4914V42.5656H182.184V48.5818ZM192.573 48.5818H189.285V42.5656H192.573V42.9524H189.705V45.228H192.413V45.6149H189.705V48.195H192.573V48.5818ZM202.65 47.0305C202.65 47.5325 202.465 47.9303 202.094 48.2238C201.727 48.5174 201.237 48.6642 200.625 48.6642C199.89 48.6642 199.326 48.5832 198.934 48.4214V48.0016C199.367 48.1854 199.92 48.2773 200.592 48.2773C201.086 48.2773 201.477 48.1649 201.765 47.9399C202.056 47.7122 202.201 47.4145 202.201 47.0469C202.201 46.8192 202.153 46.6313 202.057 46.4831C201.961 46.3323 201.805 46.1951 201.588 46.0716C201.371 45.9482 201.053 45.8151 200.633 45.6725C200.019 45.4612 199.594 45.2335 199.358 44.9894C199.124 44.7425 199.008 44.4146 199.008 44.0059C199.008 43.5559 199.183 43.1897 199.535 42.9071C199.889 42.6218 200.343 42.4791 200.897 42.4791C201.462 42.4791 201.993 42.5861 202.489 42.8001L202.337 43.1623C201.838 42.9538 201.36 42.8495 200.905 42.8495C200.461 42.8495 200.107 42.9524 199.843 43.1581C199.58 43.3639 199.448 43.6437 199.448 43.9976C199.448 44.2198 199.488 44.4023 199.568 44.5449C199.65 44.6876 199.783 44.8165 199.967 44.9317C200.151 45.0442 200.466 45.18 200.913 45.3391C201.382 45.501 201.735 45.6588 201.971 45.8124C202.207 45.9633 202.378 46.1361 202.485 46.3309C202.595 46.5229 202.65 46.7561 202.65 47.0305ZM219.466 42.8577C218.711 42.8577 218.118 43.0992 217.684 43.582C217.251 44.0648 217.034 44.726 217.034 45.5655C217.034 46.4242 217.238 47.0908 217.647 47.5654C218.056 48.04 218.64 48.2773 219.4 48.2773C219.905 48.2773 220.368 48.2129 220.791 48.0839V48.4543C220.393 48.5942 219.897 48.6642 219.301 48.6642C218.456 48.6642 217.791 48.3912 217.305 47.8452C216.82 47.2993 216.577 46.5366 216.577 45.5572C216.577 44.9455 216.692 44.4064 216.923 43.94C217.156 43.4736 217.489 43.1142 217.923 42.8619C218.359 42.6067 218.865 42.4791 219.441 42.4791C220.028 42.4791 220.554 42.5889 221.017 42.8084L220.849 43.1869C220.41 42.9675 219.949 42.8577 219.466 42.8577ZM230.423 46.4585H227.979L227.139 48.5818H226.674L229.094 42.5409H229.362L231.732 48.5818H231.259L230.423 46.4585ZM228.131 46.0799H230.283L229.464 43.9112C229.396 43.7411 229.314 43.5052 229.218 43.2034C229.143 43.4668 229.063 43.7054 228.975 43.9194L228.131 46.0799ZM242.356 48.5818H241.932L238.368 43.2404H238.335C238.368 43.8769 238.385 44.357 238.385 44.6807V48.5818H237.982V42.5656H238.401L241.961 47.8987H241.986C241.961 47.4049 241.949 46.9358 241.949 46.4914V42.5656H242.356V48.5818ZM260.361 47.0305C260.361 47.5325 260.176 47.9303 259.806 48.2238C259.438 48.5174 258.948 48.6642 258.337 48.6642C257.601 48.6642 257.038 48.5832 256.645 48.4214V48.0016C257.079 48.1854 257.632 48.2773 258.304 48.2773C258.798 48.2773 259.189 48.1649 259.477 47.9399C259.767 47.7122 259.913 47.4145 259.913 47.0469C259.913 46.8192 259.865 46.6313 259.769 46.4831C259.673 46.3323 259.516 46.1951 259.3 46.0716C259.083 45.9482 258.765 45.8151 258.345 45.6725C257.73 45.4612 257.305 45.2335 257.069 44.9894C256.836 44.7425 256.719 44.4146 256.719 44.0059C256.719 43.5559 256.895 43.1897 257.246 42.9071C257.6 42.6218 258.054 42.4791 258.608 42.4791C259.173 42.4791 259.704 42.5861 260.201 42.8001L260.049 43.1623C259.549 42.9538 259.072 42.8495 258.617 42.8495C258.172 42.8495 257.818 42.9524 257.555 43.1581C257.291 43.3639 257.16 43.6437 257.16 43.9976C257.16 44.2198 257.2 44.4023 257.279 44.5449C257.361 44.6876 257.494 44.8165 257.678 44.9317C257.862 45.0442 258.178 45.18 258.625 45.3391C259.094 45.501 259.446 45.6588 259.682 45.8124C259.918 45.9633 260.09 46.1361 260.197 46.3309C260.306 46.5229 260.361 46.7561 260.361 47.0305ZM270.315 48.5818H267.027V42.5656H270.315V42.9524H267.446V45.228H270.154V45.6149H267.446V48.195H270.315V48.5818ZM280.358 48.5818H277.07V42.5656H280.358V42.9524H277.49V45.228H280.198V45.6149H277.49V48.195H280.358V48.5818Z" fill="#EC1C2A"/>
<path d="M25.044 0L29.8671 12.7547H32.176C34.0594 12.7547 35.7457 13.9216 36.4095 15.6841L50.0872 51.9999H63.6106L46.592 6.4679C45.1381 2.57821 41.422 0 37.2695 0H25.044Z" fill="#EC1C2A"/>
<path fill-rule="evenodd" clip-rule="evenodd" d="M0 26.0894C0 11.6808 11.7008 0.000244141 26.1344 0.000244141H37.7067V12.755H26.1344C18.7572 12.755 12.7768 18.725 12.7768 26.0894C12.7768 33.4539 18.7572 39.4239 26.1344 39.4239H38.1457L42.9475 52.0001H26.045C11.6113 52.0001 0 40.4981 0 26.0894Z" fill="#EC1C2A"/>
<path fill-rule="evenodd" clip-rule="evenodd" d="M80.804 0.000183105C80.7057 0.0646694 80.6078 0.13014 80.5102 0.196596C80.4284 0.252369 80.3467 0.308903 80.2653 0.366124C72.2292 6.01661 69.654 16.5594 73.7215 25.1576L63.6117 52H50.0884L67.107 6.46808C68.5609 2.57839 72.277 0.000183105 76.4295 0.000183105L80.804 0.000183105Z" fill="#EC1C2A"/>
<path d="M100.711 25.7959C100.711 29.9381 97.3473 33.2959 93.198 33.2959C89.0487 33.2959 85.6851 29.9381 85.6851 25.7959C85.6851 21.6538 89.0487 18.296 93.198 18.296C97.3473 18.296 100.711 21.6538 100.711 25.7959Z" fill="#EC1C2A"/>
<path d="M110.426 12.519H99.6432H93.8682L93.8379 12.5458C93.6056 12.534 93.3718 12.528 93.1365 12.528C85.6678 12.528 79.6132 18.5721 79.6132 26.0279C79.6132 26.7025 79.6627 27.3655 79.7584 28.0136L78.305 25.9291C73.1072 18.4749 74.9113 8.20082 82.3344 2.98131C82.402 2.9338 82.4698 2.88687 82.5379 2.84052C85.0778 1.11014 87.9338 0.190372 90.7981 0.0267233L90.8684 0.0228601C91.4682 -0.0088131 92.0682 -0.00736323 92.6656 0.0267233H115.111L110.426 12.519Z" fill="#EC1C2A"/>
<path d="M91.1414 39.382H86.303H75.52L70.835 51.8743H93.2807C93.8781 51.9084 94.4781 51.9099 95.0779 51.8782L95.1482 51.8743C98.0125 51.7107 100.869 50.7909 103.408 49.0605C103.476 49.0142 103.544 48.9673 103.612 48.9197C111.035 43.7002 112.839 33.4261 107.641 25.9719L106.566 24.43C106.628 24.954 106.66 25.4873 106.66 26.0279C106.66 33.4838 100.605 39.5279 93.1365 39.5279C92.4587 39.5279 91.7925 39.4781 91.1414 39.382Z" fill="#EC1C2A"/>
<path d="M93.1365 39.5279C93.8144 39.5279 94.4806 39.4781 95.1317 39.382H91.1414C91.7925 39.4781 92.4587 39.5279 93.1365 39.5279Z" fill="#EC1C2A"/>
</svg>
